<?xml version="1.0" standalone="no"?><!DOCTYPE svg PUBLIC "-//W3C//DTD SVG 1.1//EN" "http://www.w3.org/Graphics/SVG/1.1/DTD/svg11.dtd"><svg id="logoaa" width="2000" height="1862.5" viewBox="0 0 160 149" xmlns="http://www.w3.org/2000/svg" ><g transform="rotate(0,4,0) matrix(0.75,0,0,0.75,4,0)" >




<g>
	<circle fill="#3F69B0" cx="42.389" cy="103.665" r="13.74"></circle>
	<circle fill="#3F69B0" cx="74.359" cy="46.94" r="11.742"></circle>
	<circle fill="#3F69B0" cx="135.75" cy="75.831" r="12.214"></circle>
	<circle fill="#3F69B0" cx="168.044" cy="26.626" r="9.981"></circle>
	<g>
		<path fill="#7CC524" d="M42.944,79.445c1.819,0,3.583,0.224,5.279,0.614c2.963,0.677,5.702,1.923,8.125,3.597
			c-0.001-0.002-0.001-0.002-0.001-0.002c-1.809-2.271-4.998-4.412-7.026-5.639l8.845-16.501c-3.659-3.881-5.918-9.102-5.918-14.856
			c0-11.974,9.703-21.676,21.676-21.676c11.971,0,21.675,9.703,21.675,21.676c0,1.052-0.104,2.072-0.245,3.083
			c-0.363,2.547-1.177,4.942-2.343,7.12c2.579-1.783,3.73-4.292,4.239-6.103l23.48,12.586c3.534-4.279,8.883-7.007,14.87-7.007
			c1.95,0,3.826,0.294,5.602,0.832c2.886,0.876,5.471,2.424,7.61,4.442c-1.743-3.497-5.638-5.188-6.438-5.542l13.298-17.93
			c-2.628-2.916-4.235-6.767-4.235-11c0-2.009,0.378-3.926,1.036-5.707c-4.562-1.813-9.495-2.811-14.646-2.811
			c-0.292,0-0.577,0.018-0.866,0.023C130.897,7.498,119.635,0,106.737,0c-11.638,0-21.942,6.103-28.3,15.483
			c-4.842-2.39-10.227-3.736-15.909-3.736c-16.702,0-30.886,11.537-36.028,27.58c-0.926-0.118-1.866-0.184-2.822-0.184
			C10.601,39.143,0,50.515,0,64.542c0,1.347,0.102,2.669,0.29,3.959C0.114,68.596,0,68.658,0,68.658s2.235,14.521,14.245,19.173
			c2.788,1.305,5.856,2.041,9.082,2.094C27.563,83.606,34.766,79.445,42.944,79.445z"></path>
		<path fill="#3F69B0" d="M190.385,43.094c0,0-3.741-3.968-9.707-5.546c-3.021,3.7-7.615,6.067-12.769,6.067
			c-0.32,0-0.634-0.03-0.953-0.047l-14.171,22.438c0.979,1.903,2.232,5.047,2.088,9.612c-0.334,10.64-8.629,19.275-19.274,19.275
			c-10.654,0-19.28-8.632-19.28-19.275c0-0.143,0.021-0.274,0.021-0.413L90.043,61.108c-3.966,4.424-9.709,7.225-16.12,7.225
			c-1.687,0-3.319-0.211-4.894-0.573l-9.782,18.248c4.491,4.297,7.298,10.333,7.298,17.04c0,3.259-0.659,6.361-1.852,9.184
			c7.806,6.451,17.583,10.296,28.2,10.296c13.063,0,24.85-5.816,33.265-15.155c3.705,1.143,7.618,1.767,11.667,1.767
			c12.419,0,23.587-5.76,31.306-14.924c1.207,0.174,2.433,0.273,3.682,0.273C187.825,94.488,200,81.43,200,65.323
			C200,56.41,196.261,48.443,190.385,43.094z"></path>
	</g>
</g>

</g><g transform="rotate(0,0,109.25) matrix(1.35,0,0,1.35,0,109.25)" fill="#307FA8"><path  d="M6.73828125,29.53125l5.859375,0l0-27.890625l-5.859375,0l0,6.2109375l-5.15625,0l0,2.63671875l5.15625,0l0,10.78125l-5.390625,0l0,2.8125l5.390625,0l0,5.44921875z M28.125,26.6015625l-5.21484375,0l0-15.41015625l4.74609375-2.578125l0-2.9296875l-4.74609375,2.63671875l0-6.6796875l-5.859375,0l0,27.59765625l11.07421875,0l0-2.63671875z M40.60546875,21.50390625l-1.11328125,8.203125l4.86328125,0l1.23046875-7.91015625l0-7.44140625l6.6796875,0q1.142578125-0.087890625,1.0546875,1.0546875l0,0.41015625l-1.23046875,2.51953125l-1.11328125-2.05078125l-5.33203125,0l3.45703125,6.62109375l-4.39453125,6.796875l5.5078125,0l1.46484375-2.34375l1.5234375,2.34375l5.7421875,0l-4.1015625-6.796875l3.45703125-5.9765625l0-2.16796875q0.029296875-1.81640625-0.5712890625-2.4169921875t-2.4169921875-0.5712890625l-2.9296875,0l0-5.91796875l0.41015625,0q1.11328125-0.1171875,0.9375,0.99609375l-0.17578125,2.75390625l4.8046875,0l0.17578125-3.3984375q0.17578125-1.81640625-0.380859375-2.3876953125t-2.373046875-0.5419921875l-3.3984375,0l0-1.875l-4.98046875,0l0,1.875l-6.796875,0l0,18.22265625z M45.5859375,5.859375l1.81640625,0l0,5.91796875l-1.81640625,0l0-5.91796875z M31.11328125,27.890625l8.26171875,0l0-2.578125l-1.23046875,0l0-14.6484375l1.81640625,0l0-2.578125l-1.81640625,0l0-6.6796875l-5.0390625,0l0,6.6796875l-1.81640625,0l0,2.578125l1.81640625,0l0,14.6484375l-1.9921875,0l0,2.578125z M68.73046875,13.41796875l1.640625,0l0,16.2890625l5.859375,0l0-1.46484375l12.65625,0l0-2.63671875l-4.5703125,0l0-4.6875l3.984375,0l0-2.578125l-3.984375,0l0-4.5703125l3.984375,0l0-2.578125l-3.984375,0l0-4.39453125l4.3359375,0l0-2.578125l-3.75,0l-0.87890625-2.75390625l-5.80078125,0l0.8203125,2.75390625l-2.28515625,0l0.8203125-2.9296875l-5.390625,0l-3.45703125,12.12890625z M76.23046875,25.60546875l0-4.6875l2.8125,0l0,4.6875l-2.8125,0z M76.23046875,18.33984375l0-4.5703125l2.8125,0l0,4.5703125l-2.8125,0z M76.23046875,11.19140625l0-4.39453125l2.8125,0l0,4.39453125l-2.8125,0z M61.58203125,29.70703125l6.5625,0l0-11.8359375l1.5234375-0.703125l0-2.8125l-1.5234375,0.703125l0-6.26953125l1.640625,0l0-2.578125l-1.640625,0l0-4.921875l-5.68359375,0l0,4.921875l-1.5234375,0l0,2.578125l1.5234375,0l0,8.90625l-1.46484375,0.64453125l0,2.8125l1.46484375-0.64453125l0,6.5625l-0.87890625,0l0,2.63671875z M102.890625,1.40625l0,1.93359375l-10.48828125,0l0,18.45703125l-1.5234375,7.91015625l6.09375,0l1.2890625-7.03125l0-16.7578125l20.0390625,0l0-2.578125l-9.31640625,0l0-1.93359375l-6.09375,0z"></path></g></svg>